<svg width="288" height="256" viewBox="0 0 288 256" fill="none" xmlns="http://www.w3.org/2000/svg">
<path d="M241.15 96C258.25 96 288 110.5 288 128C288 146 258.25 160 241.15 160H182.85L132.6 247.95C129.75 252.95 124.45 256 118.7 256H90.6C85.3 256 81.45 250.9 82.9 245.8L107.4 160H56L34.4 188.8C32.9 190.8 30.5 192 28 192H7C3.1 192 0 188.85 0 185C0 184.35 0.1 183.7 0.25 183.05L16 128L0.25 72.95C0.05 72.3 0 71.65 0 71C0 67.1 3.15 64 7 64H28C30.5 64 32.9 65.2 34.4 67.2L56 96H107.45L82.95 10.2C81.45 5.1 85.3 0 90.6 0H118.7C124.45 0 129.75 3.1 132.6 8.05L182.85 96H241.15Z" fill="#EE7A7C"/>
</svg>
